<svg width="138" height="24" viewBox="0 0 138 24" fill="none" xmlns="http://www.w3.org/2000/svg">
<path d="M12.472 23.384C10.1467 23.384 8.04533 22.8827 6.168 21.88C4.312 20.8773 2.85067 19.5013 1.784 17.752C0.738667 15.9813 0.216 13.9973 0.216 11.8C0.216 9.60267 0.738667 7.62933 1.784 5.88C2.85067 4.10933 4.312 2.72267 6.168 1.72C8.04533 0.717333 10.1467 0.216 12.472 0.216C14.7973 0.216 16.888 0.717333 18.744 1.72C20.6 2.72267 22.0613 4.10933 23.128 5.88C24.1947 7.62933 24.728 9.60267 24.728 11.8C24.728 13.9973 24.1947 15.9813 23.128 17.752C22.0613 19.5013 20.6 20.8773 18.744 21.88C16.888 22.8827 14.7973 23.384 12.472 23.384ZM12.472 18.968C13.7947 18.968 14.9893 18.6693 16.056 18.072C17.1227 17.4533 17.9547 16.6 18.552 15.512C19.1707 14.424 19.48 13.1867 19.48 11.8C19.48 10.4133 19.1707 9.176 18.552 8.088C17.9547 7 17.1227 6.15733 16.056 5.56C14.9893 4.94133 13.7947 4.632 12.472 4.632C11.1493 4.632 9.95467 4.94133 8.888 5.56C7.82133 6.15733 6.97867 7 6.36 8.088C5.76267 9.176 5.464 10.4133 5.464 11.8C5.464 13.1867 5.76267 14.424 6.36 15.512C6.97867 16.6 7.82133 17.4533 8.888 18.072C9.95467 18.6693 11.1493 18.968 12.472 18.968ZM29.5045 23.256C28.6298 23.256 27.8938 22.9573 27.2965 22.36C26.6992 21.7627 26.4005 21.016 26.4005 20.12C26.4005 19.2027 26.6992 18.4667 27.2965 17.912C27.8938 17.336 28.6298 17.048 29.5045 17.048C30.3792 17.048 31.1152 17.336 31.7125 17.912C32.3098 18.4667 32.6085 19.2027 32.6085 20.12C32.6085 21.016 32.3098 21.7627 31.7125 22.36C31.1152 22.9573 30.3792 23.256 29.5045 23.256ZM68.3563 23V12.696L63.2043 21.336H61.0923L56.0683 12.664V23H51.5563V5.784H56.7723L62.2763 15.736L68.1323 5.784H72.8043L72.8683 23H68.3563Z" fill="#E8022B"/>
<path d="M44.0235 4.76V18.84H47.8955V23H34.9355V18.84H38.8395V4.76H34.9355V0.599998H47.8955V4.76H44.0235Z" fill="#BC0022"/>
<path d="M86.226 19.256C87.122 19.256 87.9113 19.128 88.594 18.872C89.298 18.5947 89.9487 18.168 90.546 17.592L93.202 20.472C91.5807 22.328 89.2127 23.256 86.098 23.256C84.1567 23.256 82.4393 22.8827 80.946 22.136C79.4527 21.368 78.3007 20.312 77.49 18.968C76.6793 17.624 76.274 16.0987 76.274 14.392C76.274 12.7067 76.6687 11.192 77.458 9.848C78.2687 8.48267 79.3673 7.42667 80.754 6.68C82.162 5.912 83.7407 5.528 85.49 5.528C87.1327 5.528 88.626 5.88 89.97 6.584C91.314 7.26667 92.3807 8.26933 93.17 9.592C93.9807 10.8933 94.386 12.44 94.386 14.232L81.65 16.696C82.0127 17.5493 82.578 18.1893 83.346 18.616C84.1353 19.0427 85.0953 19.256 86.226 19.256ZM85.49 9.304C84.2313 9.304 83.2073 9.70933 82.418 10.52C81.6287 11.3307 81.2127 12.4507 81.17 13.88L89.554 12.248C89.3193 11.352 88.8393 10.6373 88.114 10.104C87.3887 9.57067 86.514 9.304 85.49 9.304Z" fill="#FF2950"/>
<path d="M97.8375 5.784H102.798V12.504H110.286V5.784H115.278V23H110.286V16.568H102.798V23H97.8375V5.784Z" fill="#FF506F"/>
<path d="M137.432 5.784V23H132.664V21.016C131.427 22.5093 129.635 23.256 127.288 23.256C125.667 23.256 124.195 22.8933 122.872 22.168C121.571 21.4427 120.547 20.408 119.8 19.064C119.054 17.72 118.68 16.1627 118.68 14.392C118.68 12.6213 119.054 11.064 119.8 9.72C120.547 8.376 121.571 7.34133 122.872 6.616C124.195 5.89067 125.667 5.528 127.288 5.528C129.486 5.528 131.203 6.22133 132.44 7.608V5.784H137.432ZM128.152 19.16C129.411 19.16 130.456 18.7333 131.288 17.88C132.12 17.0053 132.536 15.8427 132.536 14.392C132.536 12.9413 132.12 11.7893 131.288 10.936C130.456 10.0613 129.411 9.624 128.152 9.624C126.872 9.624 125.816 10.0613 124.984 10.936C124.152 11.7893 123.736 12.9413 123.736 14.392C123.736 15.8427 124.152 17.0053 124.984 17.88C125.816 18.7333 126.872 19.16 128.152 19.16Z" fill="#FD7B92"/>
</svg>
